<svg xmlns="http://www.w3.org/2000/svg" viewBox="0 0 512 512" role="img" aria-labelledby="title desc">
  <title id="title">Solara logo</title>
  <desc id="desc">Circular black and white Solara chat logo with sun and horizon</desc>
  <defs>
    <linearGradient id="shell" x1="0%" x2="100%" y1="0%" y2="100%">
      <stop offset="0%" stop-color="#202020"/>
      <stop offset="100%" stop-color="#0d0d0d"/>
    </linearGradient>
    <linearGradient id="sky" x1="0%" x2="0%" y1="0%" y2="100%">
      <stop offset="0%" stop-color="#ffffff"/>
      <stop offset="100%" stop-color="#f2f2f2"/>
    </linearGradient>
  </defs>

  <circle cx="256" cy="256" r="158" fill="url(#shell)"/>
  <path d="M256 42c118 0 214 96 214 214 0 104-74 191-173 211l-66 63 17-55C156 472 84 382 84 275 84 148 182 42 256 42Z" fill="url(#shell)"/>
  <path d="M256 52c112 0 203 91 203 203 0 96-68 177-160 196l-49 47 12-42C173 449 102 369 102 275 102 153 199 52 256 52Z" fill="#111"/>
  <circle cx="256" cy="240" r="128" fill="url(#sky)"/>

  <g fill="#111">
    <path d="M256 94l10 32h-20z"/>
    <path d="M329 118l-13 31-17-10z"/>
    <path d="M382 171l-25 22-8-18z"/>
    <path d="M403 246l-32 10-3-20z"/>
    <path d="M128 171l33 4-8 18z"/>
    <path d="M183 118l30 21-17 10z"/>
    <path d="M109 246l35-10 2 20z"/>
  </g>

  <path d="M194 236a62 62 0 0 1 124 0" fill="none" stroke="#111" stroke-width="10" stroke-linecap="round"/>
  <circle cx="256" cy="235" r="31" fill="#111"/>

  <path d="M102 257c47-21 104-31 171-31 70 0 132 12 186 35v34H102z" fill="#fff"/>
  <path d="M102 270c34-21 90-32 157-32 80 0 142 17 200 49v94H127c-12-15-19-27-25-45z" fill="#111"/>
  <path d="M124 267c42-12 92-14 149-9 49 4 88 14 119 29-24-9-50-14-77-17-58-6-119 4-191 29 0-12 0-22 0-32z" fill="#fff"/>
  <path d="M244 250c63 1 114 12 156 35-38-14-77-20-118-18-60 3-108 18-146 42 34-39 71-59 108-59z" fill="#fff"/>

  <text x="256" y="326" text-anchor="middle" font-family="Inter, Arial, sans-serif" font-size="41" font-weight="800" letter-spacing="5" fill="#fff">SOLARA</text>
</svg>
